#define _width 200
#define _height 200
static char _bits[] = {
 0x00,0x00,0x00,0x00,0x00,0x00,0x00,0x00,0x00,0x00,0x00,0x00,0x00,0x00,0x00,
 0x00,0x00,0x00,0x00,0x00,0x00,0x00,0x00,0x00,0x00,0x00,0x00,0x00,0x00,0x00,
 0x00,0x00,0x00,0x00,0x00,0x00,0x00,0x00,0x00,0x00,0x00,0x00,0x00,0x00,0x00,
 0x00,0x00,0x00,0x00,0x00,0x00,0x00,0x00,0x00,0x00,0x00,0x00,0x00,0x00,0x00,
 0x00,0x00,0x00,0x00,0x00,0x00,0x00,0x00,0x00,0x00,0x00,0x00,0x00,0x00,0x00,
 0x00,0x00,0x00,0x00,0x00,0x00,0x00,0x00,0x00,0x00,0x00,0x00,0x00,0x00,0x00,
 0x00,0x00,0x00,0x00,0x00,0x00,0x00,0x00,0x00,0x00,0x00,0x00,0x00,0x00,0x00,
 0x00,0x00,0x00,0x00,0x00,0x00,0x00,0x00,0x00,0x00,0x00,0x00,0x00,0x00,0x00,
 0x00,0x00,0x00,0x00,0x00,0x00,0x00,0x00,0x00,0x00,0x00,0x00,0x00,0x00,0x00,
 0x00,0x00,0x00,0x00,0x00,0x00,0x00,0x00,0x00,0x00,0x00,0x00,0x00,0x00,0x00,
 0x00,0x00,0x00,0x00,0x00,0x00,0x00,0x00,0x00,0x00,0x00,0x00,0x00,0x00,0x00,
 0x00,0x00,0x00,0x00,0x00,0x00,0x00,0x00,0x00,0x00,0x00,0x00,0x00,0x00,0x00,
 0x00,0x00,0x00,0x00,0x00,0x00,0x00,0x00,0x00,0x00,0x00,0x00,0x00,0x00,0x00,
 0x00,0x00,0x00,0x00,0x00,0x00,0x00,0x00,0x00,0x00,0x00,0x00,0x00,0x00,0x00,
 0x00,0x00,0x00,0x00,0x00,0x00,0x00,0x00,0x00,0x00,0x00,0x00,0x00,0x00,0x00,
 0x00,0x00,0x00,0x00,0x00,0x00,0x00,0x00,0x00,0x00,0x00,0x00,0x00,0x00,0x00,
 0x00,0x00,0x00,0x00,0x00,0x00,0x00,0x00,0x00,0x00,0x00,0x00,0x00,0x00,0x00,
 0x00,0x00,0x00,0x00,0x00,0x00,0x00,0x00,0x00,0x00,0x00,0x00,0x00,0x00,0x00,
 0x00,0x00,0x00,0x00,0x00,0x00,0x00,0x00,0x00,0x00,0x00,0x00,0x00,0x00,0x00,
 0x00,0x00,0x00,0x00,0x00,0x00,0x00,0x00,0x00,0x00,0x00,0x00,0x00,0x00,0x00,
 0x00,0x00,0x00,0x00,0x00,0x00,0x00,0x00,0x00,0x00,0x00,0x00,0x00,0x00,0x00,
 0x00,0x00,0x00,0x00,0x00,0x00,0x00,0x00,0x00,0x00,0x00,0x00,0x00,0x00,0x00,
 0x00,0x00,0x00,0x00,0x00,0x00,0x00,0x00,0x00,0x00,0x00,0x00,0x00,0x00,0x00,
 0x00,0x00,0x00,0x00,0x00,0x00,0x00,0x00,0x00,0x00,0x00,0x00,0x00,0x00,0x00,
 0x00,0x00,0x00,0x00,0x00,0x00,0x00,0x00,0x00,0x00,0x00,0x00,0x00,0x00,0x00,
 0x00,0x00,0x00,0x00,0x00,0x00,0x00,0x00,0x00,0x00,0x00,0x00,0x00,0x00,0x00,
 0x00,0x00,0x00,0x00,0x00,0x00,0x00,0x00,0x00,0x00,0x00,0x00,0x00,0x00,0x00,
 0x00,0x00,0x00,0x00,0x00,0x00,0x00,0x00,0x00,0x00,0x00,0x00,0x00,0x00,0x00,
 0x00,0x00,0x00,0x00,0x00,0x00,0x00,0x00,0x00,0x00,0x00,0x00,0x00,0x00,0x00,
 0x00,0x00,0x00,0x00,0x00,0x00,0x00,0x00,0x50,0x00,0x00,0x00,0x00,0x00,0x00,
 0x00,0x00,0x00,0x00,0x00,0x00,0x00,0x00,0x00,0x00,0x00,0x00,0x00,0x00,0x00,
 0x00,0x00,0x00,0x28,0x01,0x00,0x00,0x00,0x00,0x00,0x00,0x00,0x00,0x00,0x00,
 0x00,0x00,0x00,0x00,0x00,0x00,0x00,0x00,0x00,0x00,0x00,0x00,0x00,0xa2,0x00,
 0x00,0x00,0x00,0x00,0x00,0x00,0x00,0x00,0x00,0x00,0x00,0x00,0x00,0x00,0x00,
 0x00,0x00,0x00,0x00,0x00,0x00,0x00,0x00,0x15,0x01,0x00,0x00,0x00,0x00,0x00,
 0x00,0x00,0x00,0x00,0x00,0x00,0x00,0x00,0x00,0x00,0x00,0x00,0x00,0x00,0x00,
 0x00,0x00,0x00,0x48,0x07,0x00,0x00,0x00,0x00,0x00,0x00,0x00,0x00,0x00,0x00,
 0x80,0x00,0x00,0x00,0x00,0x00,0x00,0x00,0x00,0x00,0x00,0x00,0xc0,0x92,0x00,
 0x00,0x00,0x00,0x00,0x00,0x00,0x00,0x00,0x00,0x00,0x20,0x02,0x00,0x00,0x00,
 0x00,0x00,0x00,0x00,0x00,0x00,0x00,0x00,0x22,0x05,0x00,0x00,0x00,0x00,0x00,
 0x00,0x00,0x00,0x00,0x00,0x88,0x14,0x00,0x00,0x00,0x00,0x00,0x00,0x00,0x00,
 0x00,0x00,0xd0,0xcc,0x0a,0x00,0x00,0x00,0x00,0x00,0x00,0x00,0x00,0x00,0x00,
 0x50,0x00,0x00,0x00,0x00,0x00,0x00,0x00,0x00,0x00,0x00,0x00,0x10,0x31,0x05,
 0x00,0x00,0x00,0x00,0x00,0x00,0x00,0x00,0x00,0x00,0x04,0x55,0x00,0x00,0x00,
 0x00,0x00,0x00,0x00,0x00,0x00,0x00,0x48,0x4b,0x1a,0x00,0x00,0x00,0x00,0x00,
 0x00,0x00,0x00,0x00,0x00,0xa8,0x88,0x00,0x00,0x00,0x00,0x00,0x00,0x00,0x00,
 0x00,0x00,0x50,0x54,0x05,0x00,0x00,0x00,0x00,0x00,0x00,0x00,0x00,0x00,0x00,
 0x04,0x22,0x00,0x00,0x00,0x00,0x00,0x00,0x00,0x00,0x00,0x00,0x8a,0x52,0x2b,
 0x00,0x00,0x00,0x00,0x00,0x00,0x00,0x00,0x00,0x00,0xa8,0x48,0x03,0x00,0x00,
 0x00,0x00,0x00,0x00,0x00,0x00,0x00,0x24,0x95,0x0a,0x00,0x00,0x00,0x00,0x00,
 0x00,0x00,0x00,0x00,0x00,0x4a,0x21,0x02,0x00,0x00,0x00,0x00,0x00,0x00,0x00,
 0x00,0x00,0x29,0x48,0x15,0x00,0x00,0x00,0x00,0x00,0x00,0x00,0x00,0x00,0x00,
 0x14,0x4a,0x01,0x00,0x00,0x00,0x00,0x00,0x00,0x00,0x00,0x80,0x42,0xa3,0x24,
 0x00,0x00,0x00,0x00,0x00,0x00,0x00,0x00,0x00,0x00,0xd2,0x00,0x04,0x00,0x00,
 0x00,0x00,0x00,0x00,0x00,0x00,0x00,0x49,0x28,0x2b,0x00,0x00,0x00,0x00,0x00,
 0x00,0x00,0x00,0x00,0x00,0x2a,0x55,0x09,0x00,0x00,0x00,0x00,0x00,0x00,0x00,
 0x00,0x40,0x22,0xa5,0x54,0x00,0x00,0x00,0x00,0x00,0x00,0x00,0x00,0x00,0x00,
 0x49,0x11,0x25,0x00,0x00,0x00,0x00,0x00,0x00,0x00,0x00,0xa0,0x94,0xa8,0x22,
 0x00,0x00,0x00,0x00,0x00,0x00,0x00,0x00,0x00,0x00,0x92,0x24,0x04,0x00,0x00,
 0x00,0x00,0x00,0x00,0x00,0x00,0x40,0x22,0x45,0x4d,0x00,0x00,0x00,0x00,0x00,
 0x00,0x00,0x00,0x00,0x00,0x55,0x4a,0x59,0x00,0x00,0x00,0x00,0x00,0x00,0x00,
 0x00,0x90,0xac,0x58,0x11,0x00,0x00,0x00,0x00,0x00,0x00,0x00,0x00,0x00,0x00,
 0x94,0x24,0x85,0x00,0x00,0x00,0x00,0x00,0x00,0x00,0x00,0x50,0x12,0x57,0x25,
 0x00,0x00,0x00,0x00,0x00,0x00,0x00,0x00,0x00,0x80,0x52,0x45,0x2a,0x00,0x00,
 0x00,0x00,0x00,0x00,0x00,0x00,0x48,0x65,0x55,0x29,0x00,0x00,0x00,0x00,0x00,
 0x00,0x00,0x00,0x00,0x00,0x55,0xaa,0x54,0x01,0x00,0x00,0x00,0x00,0x00,0x00,
 0x00,0x94,0xaa,0x5a,0x25,0x00,0x00,0x00,0x00,0x00,0x00,0x00,0x00,0x00,0x00,
 0x84,0x00,0x11,0x02,0x00,0x00,0x00,0x00,0x00,0x00,0x00,0x24,0x55,0xd5,0x92,
 0x00,0x00,0x00,0x00,0x00,0x00,0x00,0x00,0x00,0x80,0x52,0x2a,0xca,0x02,0x00,
 0x00,0x00,0x00,0x00,0x00,0x00,0x4a,0xad,0xaa,0x24,0x00,0x00,0x00,0x00,0x00,
 0x00,0x00,0x00,0x00,0x00,0x49,0xa5,0x24,0x09,0x00,0x00,0x00,0x00,0x00,0x00,
 0x00,0x34,0x49,0xb7,0x02,0x00,0x00,0x00,0x00,0x00,0x00,0x00,0x00,0x00,0x00,
 0x52,0x89,0x92,0x04,0x00,0x00,0x00,0x00,0x00,0x00,0x80,0x84,0x06,0xa8,0xa8,
 0x00,0x00,0x00,0x00,0x00,0x00,0x00,0x00,0x00,0x80,0x24,0x04,0x48,0x15,0x00,
 0x00,0x00,0x00,0x00,0x00,0x00,0xaa,0xd0,0x52,0x22,0x00,0x00,0x00,0x00,0x00,
 0x00,0x00,0x00,0x00,0x00,0xca,0x92,0x22,0x29,0x00,0x00,0x00,0x00,0x00,0x00,
 0x80,0x88,0xae,0x8c,0x04,0x00,0x00,0x00,0x00,0x00,0x00,0x00,0x00,0x00,0x00,
 0x91,0x24,0x44,0x12,0x00,0x00,0x00,0x00,0x00,0x00,0x80,0x56,0x95,0x21,0x51,
 0x00,0x00,0x00,0x00,0x00,0x00,0x00,0x00,0x00,0x00,0xa4,0x4a,0x95,0x2a,0x00,
 0x00,0x00,0x00,0x00,0x00,0x40,0xa5,0x04,0xac,0x04,0x00,0x00,0x00,0x00,0x00,
 0x00,0x00,0x00,0x00,0x00,0x49,0x95,0x52,0xaa,0x00,0x00,0x00,0x00,0x00,0x00,
 0x20,0x2a,0x20,0x40,0x50,0x00,0x00,0x00,0x00,0x00,0x00,0x00,0x00,0x00,0x00,
 0x90,0xa4,0x50,0x14,0x01,0x00,0x00,0x00,0x00,0x00,0x80,0x92,0x02,0x15,0x25,
 0x00,0x00,0x00,0x00,0x00,0x00,0x00,0x00,0x00,0x00,0xa5,0x42,0xaa,0x6a,0x00,
 0x00,0x00,0x00,0x00,0x00,0x30,0x0b,0x14,0x22,0x08,0x00,0x00,0x00,0x00,0x00,
 0x00,0x00,0x00,0x00,0x00,0x48,0x94,0x4a,0x91,0x02,0x00,0x00,0x00,0x00,0x00,
 0xa0,0x70,0xe9,0x94,0x22,0x00,0x00,0x00,0x00,0x00,0x00,0x00,0x00,0x00,0x00,
 0x12,0xa5,0x90,0xac,0x09,0x00,0x00,0x00,0x00,0x00,0x48,0x8f,0x90,0x05,0x44,
 0x00,0x00,0x00,0x00,0x00,0x00,0x00,0x00,0x00,0x00,0x44,0x2a,0x22,0x22,0x05,
 0x00,0x00,0x00,0x00,0x00,0x50,0x59,0x4a,0xa2,0x08,0x00,0x00,0x00,0x00,0x00,
 0x00,0x00,0x00,0x00,0x00,0x89,0x90,0x80,0xca,0x00,0x00,0x00,0x5a,0x00,0x00,
 0xac,0x27,0x15,0x10,0x25,0x00,0x00,0x00,0x00,0x00,0x00,0x00,0x00,0x00,0x00,
 0x14,0x0a,0x52,0x35,0x0b,0x00,0xa0,0x44,0x13,0x02,0xa9,0x58,0x21,0x88,0x00,
 0x00,0x00,0x00,0x00,0x00,0x00,0x00,0x00,0x00,0x00,0xa0,0x40,0x04,0xd5,0x52,
 0x93,0x46,0x5b,0xa4,0x70,0x22,0xa7,0x8e,0x42,0x2a,0x00,0x00,0x00,0x00,0x00,
 0x00,0x00,0x00,0x00,0x00,0x0a,0x02,0x50,0x54,0x85,0x6a,0xdd,0x50,0x63,0x0b,
 0xa9,0x54,0x21,0x14,0x01,0x00,0x00,0x00,0x00,0x00,0x00,0x00,0x00,0x00,0x00,
 0x50,0x88,0x8a,0x29,0x15,0xa5,0x63,0x85,0xf6,0x52,0x14,0x51,0xaa,0x22,0x24,
 0x00,0x00,0x00,0x00,0x00,0x00,0x00,0x00,0x00,0x00,0x44,0x01,0x20,0x6a,0xa5,
 0xd2,0x52,0x09,0xd9,0x8c,0x2a,0x0a,0x45,0x88,0x00,0x00,0x00,0x00,0x00,0x00,
 0x00,0x00,0x00,0x00,0x00,0x10,0x24,0x48,0x55,0x92,0xec,0x57,0xcd,0x6a,0x77,
 0x49,0x85,0x14,0x51,0x12,0x00,0x00,0x00,0x00,0x00,0x00,0x00,0x00,0x00,0x00,
 0xa0,0x00,0xd1,0xa2,0x54,0xd2,0x8e,0x31,0xd8,0x4b,0xd2,0x40,0x08,0x0a,0x00,
 0x00,0x00,0x00,0x00,0x00,0x00,0x00,0x00,0x00,0x00,0x04,0x4a,0x24,0x0c,0x91,
 0xf5,0x93,0x24,0xa6,0xb4,0x4d,0x12,0xf2,0x52,0x05,0x00,0x00,0x00,0x00,0x00,
 0x00,0x00,0x00,0x00,0x00,0x90,0x00,0x89,0xa0,0xa8,0x66,0x67,0xb2,0xa9,0xbb,
 0x3a,0x85,0x88,0x0a,0x12,0x00,0x00,0x00,0x00,0x00,0x00,0x00,0x00,0x00,0x00,
 0x04,0x2a,0x10,0x20,0x57,0xda,0x45,0x2a,0x62,0xcd,0x53,0x25,0xa0,0xaa,0x48,
 0x00,0x00,0x00,0x00,0x00,0x00,0x00,0x00,0x00,0x00,0x40,0x40,0x02,0x4a,0x54,
 0xad,0xd9,0xa9,0x4a,0x72,0x4d,0x11,0x94,0x4a,0x2b,0x00,0x00,0x00,0x00,0x00,
 0x00,0x00,0x00,0x00,0x00,0x84,0x2a,0x25,0x90,0x8a,0xf6,0x6d,0xa9,0xeb,0xcf,
 0x2a,0x86,0x44,0x95,0x0a,0x00,0x00,0x00,0x00,0x00,0x00,0x00,0x00,0x00,0x00,
 0x50,0x90,0x08,0x24,0x7d,0xf7,0x41,0xb5,0xcd,0x53,0x56,0x5b,0x02,0xa4,0x12,
 0x00,0x00,0x00,0x00,0x00,0x00,0x00,0x00,0x00,0x00,0x20,0x25,0x82,0x88,0x92,
 0xdd,0xd6,0x67,0x92,0xee,0xd1,0x4a,0x91,0x5a,0x47,0x00,0x00,0x00,0x00,0x00,
 0x00,0x00,0x00,0x00,0x00,0x48,0x55,0x01,0xb5,0x6e,0x72,0x55,0xdd,0xfe,0x93,
 0xae,0xb3,0x42,0xd1,0x08,0x00,0x00,0x00,0x00,0x00,0x00,0x00,0x00,0x00,0x00,
 0x50,0xa5,0x94,0x56,0x49,0xfd,0x57,0x6b,0xb5,0xad,0x52,0x25,0x15,0x54,0x25,
 0x00,0x00,0x00,0x00,0x00,0x00,0x00,0x00,0x00,0x00,0xa0,0x95,0x42,0xa8,0x72,
 0xf6,0xd5,0x7a,0xfd,0x6f,0x2a,0xd5,0x0a,0x49,0x81,0x00,0x00,0x00,0x00,0x00,
 0x00,0x00,0x00,0x00,0x00,0x48,0xa5,0x28,0x51,0xd5,0x59,0x57,0x2c,0xab,0xad,
 0xea,0x9a,0x52,0xa2,0x2a,0x00,0x00,0x00,0x00,0x00,0x00,0x00,0x00,0x00,0x00,
 0x20,0x2b,0x80,0xae,0x34,0xf2,0x9e,0x4d,0x5d,0x55,0xb5,0x24,0x89,0x50,0x45,
 0x00,0x00,0x00,0x00,0x00,0x00,0x00,0x00,0x00,0x00,0x44,0x0a,0xb0,0x52,0xd5,
 0x7e,0xbd,0x75,0x0f,0x5f,0xd9,0xdb,0x55,0x8a,0x12,0x00,0x00,0x00,0x00,0x00,
 0x00,0x00,0x00,0x00,0x00,0x50,0x45,0x42,0x97,0x2a,0x95,0x2c,0xcd,0xfb,0x6e,
 0x95,0x92,0xb4,0xd1,0x48,0x00,0x00,0x00,0x00,0x00,0x00,0x00,0x00,0x00,0x00,
 0x20,0x11,0xd8,0x48,0xa5,0x3a,0x7a,0x35,0x06,0x35,0x25,0x75,0xc2,0xa0,0x22,
 0x00,0x00,0x00,0x00,0x00,0x00,0x00,0x00,0x00,0x00,0x48,0x8b,0x14,0x95,0x56,
 0x5d,0x96,0x1a,0x8e,0xfa,0xd2,0x4e,0x55,0x2b,0x09,0x00,0x00,0x00,0x00,0x00,
 0x00,0x00,0x00,0x00,0x00,0xa0,0x26,0x6a,0xda,0x88,0x57,0x78,0xbb,0x27,0xba,
 0xa2,0xb1,0xe4,0x42,0x12,0x00,0x00,0x00,0x00,0x00,0x00,0x00,0x00,0x00,0x00,
 0x10,0x09,0x24,0x21,0xa3,0x5a,0x7a,0xad,0x92,0x74,0x51,0x2d,0x3b,0xa5,0x2a,
 0x00,0x00,0x00,0x00,0x00,0x00,0x00,0x00,0x00,0x00,0x20,0x96,0xba,0x96,0x04,
 0x0e,0xa1,0xaa,0x25,0x70,0x44,0x15,0xc6,0x12,0x05,0x00,0x00,0x00,0x00,0x00,
 0x00,0x00,0x00,0x00,0x00,0x90,0x12,0x05,0x25,0x49,0x57,0x68,0x1a,0x09,0xf9,
 0x48,0xe2,0xac,0x55,0x0b,0x00,0x00,0x00,0x00,0x00,0x00,0x00,0x00,0x00,0x00,
 0x40,0x25,0xaa,0x52,0x05,0x0d,0xa2,0x64,0x23,0x72,0xa1,0x4a,0x93,0x4a,0x15,
 0x00,0x00,0x00,0x00,0x00,0x00,0x00,0x00,0x00,0x00,0x80,0xa4,0xb2,0xaa,0x28,
 0xaf,0x54,0x4c,0x84,0x58,0xa2,0x8a,0x2a,0x55,0x15,0x00,0x00,0x00,0x00,0x00,
 0x00,0x00,0x00,0x00,0x00,0xa0,0x0b,0x25,0x03,0x85,0x0e,0x90,0xaa,0x2c,0x74,
 0x11,0xa8,0x4a,0x8a,0x0a,0x00,0x00,0x00,0x00,0x00,0x00,0x00,0x00,0x00,0x00,
 0x00,0x54,0x92,0x70,0x02,0x2e,0x55,0x09,0x93,0xb0,0xa0,0x25,0xb5,0x54,0x2a,
 0x00,0x00,0x00,0x00,0x00,0x00,0x00,0x00,0x00,0x00,0x60,0x83,0x60,0x02,0xa5,
 0x8e,0x82,0x56,0x24,0x55,0x0a,0x90,0x0a,0x89,0x0a,0x00,0x00,0x00,0x00,0x00,
 0x00,0x00,0x00,0x00,0x00,0x80,0x54,0xaa,0x28,0x00,0xac,0x52,0x21,0x25,0x42,
 0xb8,0x92,0x30,0x32,0x14,0x00,0x00,0x00,0x00,0x00,0x00,0x00,0x00,0x00,0x00,
 0x40,0xa1,0x44,0x42,0xd7,0x92,0x54,0x56,0x55,0xb5,0xff,0x57,0x4b,0xa4,0x12,
 0x00,0x00,0x00,0x00,0x00,0x00,0x00,0x00,0x00,0x00,0x00,0x14,0xa4,0xb4,0x7f,
 0x92,0x24,0xa9,0x48,0xd5,0xff,0x5f,0xa4,0x92,0xaa,0x00,0x00,0x00,0x00,0x00,
 0x00,0x00,0x00,0x00,0x00,0x50,0x21,0x49,0xf0,0xff,0x29,0xa9,0x86,0x36,0xd2,
 0xff,0x7f,0x55,0xb2,0x14,0x00,0x00,0x00,0x00,0x00,0x00,0x00,0x00,0x00,0x00,
 0x50,0x4a,0x5c,0xfb,0xff,0x47,0x26,0x69,0x4c,0xf5,0x6b,0xff,0x8d,0xa4,0x12,
 0x00,0x00,0x00,0x00,0x00,0x00,0x00,0x00,0x00,0x00,0x28,0x09,0xa1,0xfc,0xab,
 0x17,0x58,0x95,0x2b,0xf4,0xb0,0xff,0x52,0x55,0x0a,0x00,0x00,0x00,0x00,0x00,
 0x00,0x00,0x00,0x00,0x00,0x50,0x32,0x2e,0xbe,0x52,0x4d,0x44,0x52,0x12,0xf9,
 0x7a,0xb9,0xae,0xa8,0x15,0x00,0x00,0x00,0x00,0x00,0x00,0x00,0x00,0x00,0x00,
 0xa0,0x44,0x91,0x5d,0x65,0x3e,0x50,0x25,0x15,0xbe,0xf0,0x76,0xf4,0x17,0x24,
 0x00,0x00,0x00,0x00,0x00,0x00,0x00,0x00,0x00,0x00,0x20,0x2a,0xaa,0x5a,0x85,
 0x39,0x24,0x49,0x06,0x7c,0x7f,0xb5,0x6c,0xa5,0x0b,0x00,0x00,0x00,0x00,0x00,
 0x00,0x00,0x00,0x00,0x00,0x48,0x92,0x74,0xac,0xfe,0x33,0x90,0xd2,0x4a,0xae,
 0xff,0x6a,0xfa,0x4f,0x54,0x00,0x00,0x00,0x00,0x00,0x00,0x00,0x00,0x00,0x00,
 0x40,0x45,0x3f,0x2c,0xfd,0x55,0x20,0x95,0x04,0x5e,0x7e,0x35,0xa8,0xbb,0x15,
 0x00,0x00,0x00,0x00,0x00,0x00,0x00,0x00,0x00,0x00,0x50,0x19,0x4d,0x48,0xde,
 0x75,0xa0,0x08,0x09,0xb6,0xff,0x52,0xd2,0x5d,0x15,0x00,0x00,0x00,0x00,0x00,
 0x00,0x00,0x00,0x00,0x00,0x40,0xa2,0x1e,0xba,0xfa,0x62,0x08,0x25,0x85,0x1e,
 0x6e,0x55,0xa8,0xef,0x2a,0x00,0x00,0x00,0x00,0x00,0x00,0x00,0x00,0x00,0x00,
 0x88,0xdc,0x93,0x14,0xfe,0x9a,0x40,0x42,0x09,0xee,0x7c,0x39,0x54,0xb7,0x15,
 0x00,0x00,0x00,0x00,0x00,0x00,0x00,0x00,0x00,0x00,0xa0,0x6a,0x0f,0xb8,0x78,
 0xf1,0x00,0xa9,0x40,0xbf,0x5a,0x0c,0xa8,0xfe,0x15,0x00,0x00,0x00,0x00,0x00,
 0x00,0x00,0x00,0x00,0x00,0x80,0xf4,0x22,0x30,0xb5,0xec,0x40,0xc0,0x0e,0xbe,
 0x52,0x15,0xad,0xfc,0x0b,0x00,0x00,0x00,0x00,0x00,0x00,0x00,0x00,0x00,0x00,
 0x48,0xdd,0xa9,0xd0,0x14,0xba,0x08,0x2d,0x21,0x77,0x45,0x02,0x49,0x7b,0x07,
 0x00,0x00,0x00,0x00,0x00,0x00,0x00,0x00,0x00,0x00,0x80,0x7e,0xc1,0xa2,0xa2,
 0xec,0xa2,0x48,0x86,0x6e,0xab,0x45,0x9a,0xee,0x2d,0x00,0x00,0x00,0x00,0x00,
 0x00,0x00,0x00,0x00,0x00,0x28,0x55,0xaa,0xc0,0x09,0x57,0x41,0x92,0x94,0x0b,
 0x6d,0x00,0x65,0xd9,0x16,0x00,0x00,0x00,0x00,0x00,0x00,0x00,0x00,0x00,0x00,
 0x40,0xbf,0x84,0x02,0xff,0xe0,0x90,0x24,0x29,0x5b,0x00,0xa8,0xcd,0xb6,0x0b,
 0x00,0x00,0x00,0x00,0x00,0x00,0x00,0x00,0x00,0x00,0x50,0x5d,0x52,0x0f,0x00,
 0x90,0x23,0x49,0xd6,0x07,0x00,0x54,0x52,0x59,0x02,0x00,0x00,0x00,0x00,0x00,
 0x00,0x00,0x00,0x00,0x00,0x40,0xb7,0x40,0x30,0x00,0xd0,0x55,0x94,0x54,0x3d,
 0x00,0x91,0xae,0xd6,0x05,0x00,0x00,0x00,0x00,0x00,0x00,0x00,0x00,0x00,0x00,
 0xa0,0x2a,0xa9,0xc5,0x00,0x68,0xab,0x22,0xd9,0x17,0x40,0x38,0x51,0xb9,0x0d,
 0x00,0x00,0x00,0x00,0x00,0x00,0x00,0x00,0x00,0x00,0x80,0x52,0x02,0x56,0x05,
 0xd0,0x2b,0x54,0xb5,0x2f,0x22,0x52,0xad,0x4a,0x0b,0x00,0x00,0x00,0x00,0x00,
 0x00,0x00,0x00,0x00,0x00,0x80,0xaa,0x54,0x2a,0x04,0xe8,0x96,0x14,0xe9,0x9e,
 0x90,0xcd,0x92,0xae,0x04,0x00,0x00,0x00,0x00,0x00,0x00,0x00,0x00,0x00,0x00,
 0x00,0x16,0x84,0x48,0x21,0xf2,0x55,0xa9,0xb4,0x25,0x24,0x51,0x54,0x51,0x03,
 0x00,0x00,0x00,0x00,0x00,0x00,0x00,0x00,0x00,0x00,0x80,0xb0,0x12,0x52,0x5e,
 0xa8,0x5d,0x4a,0x75,0x3f,0xd7,0x0e,0xa9,0xa6,0x0a,0x00,0x00,0x00,0x00,0x00,
 0x00,0x00,0x00,0x00,0x00,0x00,0x06,0xa0,0x82,0x80,0xb1,0xaa,0x52,0xdd,0x52,
 0x6a,0x75,0x47,0x29,0x04,0x00,0x00,0x00,0x00,0x00,0x00,0x00,0x00,0x00,0x00,
 0x00,0x48,0x0a,0x6d,0x5b,0x76,0x5d,0xad,0x7a,0x3d,0x59,0xab,0xba,0xaa,0x0a,
 0x00,0x00,0x00,0x00,0x00,0x00,0x00,0x00,0x00,0x00,0x80,0x82,0x50,0x99,0xb4,
 0x54,0xb5,0x5a,0xb7,0x6a,0xb2,0x55,0xd5,0x84,0x00,0x00,0x00,0x00,0x00,0x00,
 0x00,0x00,0x00,0x00,0x00,0x00,0x28,0x15,0x22,0x55,0x54,0xec,0xd2,0x7e,0xa5,
 0xed,0xeb,0xbe,0x2a,0x01,0x00,0x00,0x00,0x00,0x00,0x00,0x00,0x00,0x00,0x00,
 0x40,0x42,0xa3,0x44,0x95,0x2a,0xb9,0xad,0x57,0x29,0x4b,0x95,0xb2,0xd6,0x0a,
 0x00,0x00,0x00,0x00,0x00,0x00,0x00,0x00,0x00,0x00,0x00,0xa8,0x5a,0x55,0x95,
 0x0c,0xea,0x6a,0x7f,0xa2,0x5e,0xf7,0x7f,0xfb,0x02,0x00,0x00,0x00,0x00,0x00,
 0x00,0x00,0x00,0x00,0x00,0x00,0x52,0x35,0x03,0x45,0x49,0xbc,0xdb,0x7a,0xc9,
 0xeb,0xad,0xcd,0x55,0x21,0x00,0x00,0x00,0x00,0x00,0x00,0x00,0x00,0x00,0x00,
 0x00,0x54,0xa5,0xf7,0x1a,0x11,0xd6,0xaa,0x7f,0x94,0xb6,0xaa,0xba,0xfe,0x08,
 0x00,0x00,0x00,0x00,0x00,0x00,0x00,0x00,0x00,0x00,0x00,0x54,0x5b,0x14,0xd5,
 0x82,0xf8,0xdd,0x9b,0xe8,0xda,0xef,0xd7,0xab,0x01,0x00,0x00,0x00,0x00,0x00,
 0x00,0x00,0x00,0x00,0x00,0x00,0xa9,0x56,0x65,0x5b,0x08,0xd0,0xeb,0x2f,0x12,
 0x6f,0x75,0xad,0xbe,0x02,0x00,0x00,0x00,0x00,0x00,0x00,0x00,0x00,0x00,0x00,
 0x00,0xf4,0x65,0x55,0x95,0x12,0xe0,0xb7,0x0f,0x71,0xbb,0xdd,0x7a,0x69,0x00,
 0x00,0x00,0x00,0x00,0x00,0x00,0x00,0x00,0x00,0x00,0x00,0x48,0x95,0xaa,0xaa,
 0x95,0x80,0xfe,0x13,0x96,0x6a,0x55,0x4b,0xb7,0x00,0x00,0x00,0x00,0x00,0x00,
 0x00,0x00,0x00,0x00,0x00,0x00,0x70,0x6b,0x55,0x45,0x02,0x80,0xab,0x83,0x00,
 0xfc,0xea,0xfe,0x2e,0x01,0x00,0x00,0x00,0x00,0x00,0x00,0x00,0x00,0x00,0x00,
 0x00,0xd2,0xb6,0xaa,0x5a,0x00,0x40,0xff,0x01,0x90,0x80,0xba,0xd5,0x55,0x00,
 0x00,0x00,0x00,0x00,0x00,0x00,0x00,0x00,0x00,0x00,0x00,0x50,0xd5,0x2a,0x06,
 0x00,0x00,0xfe,0x14,0x35,0x41,0xa5,0x56,0x9b,0x00,0x00,0x00,0x00,0x00,0x00,
 0x00,0x00,0x00,0x00,0x00,0x00,0x54,0x35,0x95,0x00,0xb5,0x08,0x7d,0x42,0xc9,
 0x94,0x6a,0xbd,0x2a,0x00,0x00,0x00,0x00,0x00,0x00,0x00,0x00,0x00,0x00,0x00,
 0x00,0xa0,0xd7,0x25,0xa2,0x04,0x40,0x3c,0x00,0x8a,0xb6,0xd5,0xd6,0x15,0x00,
 0x00,0x00,0x00,0x00,0x00,0x00,0x00,0x00,0x00,0x00,0x00,0x48,0x5d,0x55,0x44,
 0x02,0x00,0x5a,0x95,0x20,0x68,0x58,0xbd,0x2f,0x00,0x00,0x00,0x00,0x00,0x00,
 0x00,0x00,0x00,0x00,0x00,0x00,0xa0,0xf6,0xad,0x28,0x00,0xa4,0xb4,0x02,0x00,
 0x85,0xeb,0xeb,0x12,0x00,0x00,0x00,0x00,0x00,0x00,0x00,0x00,0x00,0x00,0x00,
 0x00,0xa0,0xaa,0x2a,0x09,0x40,0x01,0x5d,0x55,0x55,0x50,0xaa,0xba,0x4d,0x00,
 0x00,0x00,0x00,0x00,0x00,0x00,0x00,0x00,0x00,0x00,0x00,0x44,0xdf,0x96,0x02,
 0x09,0x54,0xb5,0xa8,0xca,0xd6,0xee,0xef,0x16,0x00,0x00,0x00,0x00,0x00,0x00,
 0x00,0x00,0x00,0x00,0x00,0x00,0xa0,0xb4,0xa1,0x56,0x52,0x81,0xba,0x95,0x94,
 0x15,0x75,0x5d,0xab,0x00,0x00,0x00,0x00,0x00,0x00,0x00,0x00,0x00,0x00,0x00,
 0x00,0x88,0x6a,0xea,0xa2,0x02,0x54,0xfd,0x42,0x22,0x72,0x6d,0x77,0x15,0x00,
 0x00,0x00,0x00,0x00,0x00,0x00,0x00,0x00,0x00,0x00,0x00,0x20,0x95,0x3a,0x69,
 0x05,0x41,0x7f,0xad,0x84,0x4c,0xd9,0xdb,0x49,0x00,0x00,0x00,0x00,0x00,0x00,
 0x00,0x00,0x00,0x00,0x00,0x00,0x44,0xa5,0xd4,0xaa,0xa0,0x5a,0xfd,0x5b,0xad,
 0x92,0xe7,0x6e,0x27,0x00,0x00,0x00,0x00,0x00,0x00,0x00,0x00,0x00,0x00,0x00,
 0x00,0x40,0x94,0x2e,0x55,0xaa,0xd4,0x4f,0xaf,0xa4,0x2e,0x9a,0xbb,0x08,0x00,
 0x00,0x00,0x00,0x00,0x00,0x00,0x00,0x00,0x00,0x00,0x00,0x20,0x55,0xd5,0x2a,
 0x25,0xb5,0xed,0x75,0xab,0xea,0x3e,0x6f,0x03,0x00,0x00,0x00,0x00,0x00,0x00,
 0x00,0x00,0x00,0x00,0x00,0x00,0x80,0xa8,0xa5,0x6a,0xaa,0xda,0xaa,0xda,0x4a,
 0x9d,0xff,0xdc,0x1a,0x00,0x00,0x00,0x00,0x00,0x00,0x00,0x00,0x00,0x00,0x00,
 0x00,0x28,0x4b,0xda,0x1d,0xab,0xac,0x14,0xb5,0x6a,0x5a,0xe9,0xa9,0x05,0x00,
 0x00,0x00,0x00,0x00,0x00,0x00,0x00,0x00,0x00,0x00,0x00,0x40,0x55,0x55,0xea,
 0xa8,0xa9,0x32,0xa9,0xd5,0xb7,0x63,0x57,0x1b,0x00,0x00,0x00,0x00,0x00,0x00,
 0x00,0x00,0x00,0x00,0x00,0x00,0x40,0x95,0xa8,0xaa,0x57,0x42,0x44,0xaa,0x5a,
 0x75,0xcf,0x4a,0x4a,0x00,0x00,0x00,0x00,0x00,0x00,0x00,0x00,0x00,0x00,0x00,
 0x00,0x50,0x55,0x93,0x54,0xd9,0x1a,0x91,0x54,0xd5,0xfe,0xaf,0x95,0x15,0x00,
 0x00,0x00,0x00,0x00,0x00,0x00,0x00,0x00,0x00,0x00,0x00,0xa0,0x2a,0x16,0xa9,
 0x5e,0xa5,0xb4,0xb2,0xed,0xff,0xd9,0xf6,0x2b,0x00,0x00,0x00,0x00,0x00,0x00,
 0x00,0x00,0x00,0x00,0x00,0x00,0xa0,0x95,0x4a,0x55,0xb5,0x29,0x55,0xad,0xba,
 0x5d,0xad,0xad,0x1c,0x00,0x00,0x00,0x00,0x00,0x00,0x00,0x00,0x00,0x00,0x00,
 0x00,0x68,0xd7,0xa4,0x4a,0x6b,0xab,0xaa,0xaa,0xf6,0xfb,0x7b,0xfb,0x29,0x00,
 0x00,0x00,0x00,0x00,0x00,0x00,0x00,0x00,0x00,0x00,0x00,0xc0,0xaa,0x52,0xa1,
 0xfa,0xaa,0xaa,0x6a,0xff,0xaf,0x4a,0x56,0xf3,0x00,0x00,0x00,0x00,0x00,0x00,
 0x00,0x00,0x00,0x00,0x00,0x00,0xb0,0x2e,0xa9,0x56,0xaa,0x5b,0x55,0xb5,0xdd,
 0xf6,0xb7,0xeb,0x56,0x01,0x00,0x00,0x00,0x00,0x00,0x00,0x00,0x00,0x00,0x00,
 0x00,0x60,0xa9,0x44,0x88,0x6a,0x67,0xd5,0xee,0x7f,0xbf,0xee,0xad,0xad,0x00,
 0x00,0x00,0x00,0x00,0x00,0x00,0x00,0x00,0x00,0x00,0x00,0xd8,0x77,0x99,0xaa,
 0xaa,0xfe,0x6a,0x7b,0xf6,0xf3,0xba,0x57,0x57,0x00,0x00,0x00,0x00,0x00,0x00,
 0x00,0x00,0x00,0x00,0x00,0x00,0x50,0x8a,0xa2,0x92,0xd4,0xd5,0xff,0xff,0xdf,
 0xde,0xef,0xba,0xfe,0x00,0x00,0x00,0x00,0x00,0x00,0x00,0x00,0x00,0x00,0x00,
 0x00,0xaa,0x5d,0x15,0xa9,0xaa,0x7b,0xaf,0xfd,0xfb,0x6f,0xb5,0x66,0x55,0x01,
 0x00,0x00,0x00,0x00,0x00,0x00,0x00,0x00,0x00,0x00,0x00,0x78,0xab,0xaa,0x44,
 0xb5,0xd6,0xfb,0xff,0xfe,0xfd,0xdd,0xbd,0xbf,0x00,0x00,0x00,0x00,0x00,0x00,
 0x00,0x00,0x00,0x00,0x00,0x00,0x60,0x95,0x2a,0x29,0x55,0xed,0xfe,0xf7,0xaf,
 0xb7,0xbb,0x6a,0xa7,0x00,0x00,0x00,0x00,0x00,0x00,0x00,0x00,0x00,0x00,0x00,
 0x00,0xaa,0xaf,0x4a,0x45,0xaa,0xda,0xbf,0xdd,0xfb,0xfe,0xf6,0xbf,0x5d,0x01,
 0x00,0x00,0x00,0x00,0x00,0x00,0x00,0x00,0x00,0x00,0x00,0x68,0xb5,0x55,0xb5,
 0x54,0xb5,0xef,0xff,0xff,0xdb,0x57,0x7e,0xbb,0x00,0x00,0x00,0x00,0x00,0x00,
 0x00,0x00,0x00,0x00,0x00,0x00,0x54,0x6d,0xab,0x94,0x92,0x6a,0x7f,0xf7,0xbd,
 0x6f,0xfd,0xd2,0x2f,0x05,0x00,0x00,0x00,0x00,0x00,0x00,0x00,0x00,0x00,0x00,
 0x00,0xaa,0xab,0x5b,0x29,0x29,0xd5,0xeb,0xdd,0xef,0xfb,0xa7,0xef,0xfe,0x00,
 0x00,0x00,0x00,0x00,0x00,0x00,0x00,0x00,0x00,0x00,0x00,0xa9,0xfa,0xb6,0x56,
 0x4a,0xb5,0xdf,0xff,0xff,0xd7,0x5e,0xfb,0xab,0x02,0x00,0x00,0x00,0x00,0x00,
 0x00,0x00,0x00,0x00,0x00,0x00,0x55,0xd7,0x6e,0x55,0x91,0xd4,0x75,0xaf,0x5a,
 0xbf,0xfb,0x77,0x56,0x05,0x00,0x00,0x00,0x00,0x00,0x00,0x00,0x00,0x00,0x00,
 0x00,0x49,0xad,0x55,0x95,0x2a,0x75,0xeb,0xfb,0xff,0xea,0x6f,0xfb,0xed,0x0a,
 0x00,0x00,0x00,0x00,0x00,0x00,0x00,0x00,0x00,0x00,0x00,0x25,0x79,0xef,0x6b,
 0xca,0xaa,0x6d,0x5f,0xd7,0xfb,0xfe,0xfd,0x57,0x05,0x00,0x00,0x00,0x00,0x00,
 0x00,0x00,0x00,0x00,0x00,0x80,0xaa,0xca,0x5d,0x9e,0x56,0xea,0xf5,0xf5,0xad,
 0xd6,0xab,0x5f,0x2d,0x0d,0x00,0x00,0x00,0x00,0x00,0x00,0x00,0x00,0x00,0x00,
 0x00,0x45,0xba,0xaa,0x6b,0xa5,0x5a,0xa5,0x6f,0xff,0xed,0xff,0xff,0xd5,0x12,
 0x00,0x00,0x00,0x00,0x00,0x00,0x00,0x00,0x00,0x00,0x80,0x9a,0x44,0xf5,0x56,
 0x4b,0x75,0xd9,0xd5,0xaa,0xbb,0xee,0xb6,0x5b,0x2a,0x00,0x00,0x00,0x00,0x00,
 0x00,0x00,0x00,0x00,0x00,0x80,0x24,0x69,0x55,0x7b,0x55,0x65,0x76,0xbb,0xbf,
 0xee,0xfd,0xf7,0x96,0x16,0x00,0x00,0x00,0x00,0x00,0x00,0x00,0x00,0x00,0x00,
 0x40,0x49,0xaa,0xaa,0xa5,0xab,0xd5,0xc8,0xb5,0xd6,0x5d,0x57,0x5d,0xb5,0x35,
 0x00,0x00,0x00,0x00,0x00,0x00,0x00,0x00,0x00,0x00,0x40,0x95,0x90,0x6a,0x7b,
 0x75,0x6a,0x73,0x6d,0xbd,0xfb,0xdd,0xb7,0xad,0x4a,0x00,0x00,0x00,0x00,0x00,
 0x00,0x00,0x00,0x00,0x00,0xc0,0x2a,0xa5,0xca,0xea,0xae,0xb5,0xcc,0x69,0xf7,
 0x6e,0xb7,0x6e,0xa9,0x3a,0x00,0x00,0x00,0x00,0x00,0x00,0x00,0x00,0x00,0x00,
 0x40,0x55,0x28,0xb5,0x5a,0x55,0x75,0x69,0xbb,0x5d,0xfb,0xad,0x55,0x4b,0x4b,
 0x00,0x00,0x00,0x00,0x00,0x00,0x00,0x00,0x00,0x00,0x40,0x55,0xa5,0xaa,0xd4,
 0xdf,0x56,0xd6,0x66,0xf7,0xaf,0xb6,0xaa,0xaa,0x6a,0x00,0x00,0x00,0x00,0x00,
 0x00,0x00,0x00,0x00,0x00,0xa0,0xaa,0x48,0x55,0x55,0x6a,0xad,0x54,0xdd,0xbe,
 0xfd,0x6d,0x5b,0xd5,0x5a,0x00,0x00,0x00,0x00,0x00,0x00,0x00,0x00,0x00,0x00,
 0xc0,0x55,0x92,0x42,0xaa,0xd5,0x5b,0xd5,0xaa,0xea,0x4b,0xdb,0xaa,0xa4,0x52,
 0x00,0x00,0x00,0x00,0x00,0x00,0x00,0x00,0x00,0x00,0x20,0xb5,0x24,0x54,0x55,
 0x5a,0x56,0xd5,0xda,0xae,0xb6,0x2a,0x55,0xaa,0x56,0x01,0x00,0x00,0x00,0x00,
 0x00,0x00,0x00,0x00,0x00,0xc0,0x4b,0x49,0x91,0xaa,0xaa,0x55,0x55,0xb5,0xb5,
 0xab,0x56,0x2a,0xa9,0x69,0x00,0x00,0x00,0x00,0x00,0x00,0x00,0x00,0x00,0x00,
 0xb0,0x54,0x82,0x44,0x21,0x55,0xaa,0x6a,0x29,0x4d,0xa5,0xaa,0x54,0x55,0xb7,
 0x00,0x00,0x00,0x00,0x00,0x00,0x00,0x00,0x00,0x00,0x20,0x57,0x29,0x28,0x4a,
 0x90,0x52,0x4b,0x55,0x95,0xaa,0x54,0x41,0x55,0xdd,0x00,0x00,0x00,0x00,0x00,
 0x00,0x00,0x00,0x00,0x00,0xd0,0x2a,0x44,0x45,0x29,0xa5,0x14,0x54,0x49,0xa2,
 0x16,0x2b,0x55,0x55,0xbd,0x00,0x00,0x00,0x00,0x00,0x00,0x00,0x00,0x00,0x00,
 0x50,0xab,0x12,0x11,0x92,0x88,0x4a,0xa1,0xa4,0x54,0xa4,0x64,0x52,0xd5,0x5b,
 0x00,0x00,0x00,0x00,0x00,0x00,0x00,0x00,0x00,0x00,0xa0,0x57,0x21,0x42,0x09,
 0xa5,0x90,0x14,0x09,0x25,0x15,0x95,0x24,0xa5,0xde,0x00,0x00,0x00,0x00,0x00,
 0x00,0x00,0x00,0x00,0x00,0xd0,0xaa,0x94,0x14,0xa1,0x48,0x44,0xa2,0x52,0x88,
 0x48,0xa4,0x54,0xb5,0xbe,0x00,0x00,0x00,0x00,0x00,0x00,0x00,0x00,0x00,0x00,
 0xa0,0x37,0x25,0xa1,0x14,0x12,0x89,0x54,0x24,0x53,0x92,0x48,0x89,0xea,0x75,
 0x01,0x00,0x00,0x00,0x00,0x00,0x00,0x00,0x00,0x00,0x50,0xad,0x49,0x4a,0x48,
 0xa9,0x50,0x44,0x49,0x14,0x29,0x95,0x52,0xb5,0x4f,0x01,0x00,0x00,0x00,0x00,
 0x00,0x00,0x00,0x00,0x00,0xe0,0x76,0x95,0x90,0x92,0x04,0x02,0x49,0x20,0xa9,
 0x50,0xa2,0x14,0xd5,0xbe,0x00,0x00,0x00,0x00,0x00,0x00,0x00,0x00,0x00,0x00,
 0xa0,0xb5,0x14,0x25,0x04,0xa9,0x54,0x12,0x15,0x01,0x85,0x44,0xe1,0xf6,0xd6,
 0x02,0x00,0x00,0x00,0x00,0x00,0x00,0x00,0x00,0x00,0xa0,0xee,0xed,0x54,0x51,
 0x12,0x80,0xa4,0xa2,0x5a,0x2a,0x11,0x2d,0xed,0x6f,0x00,0x00,0x00,0x00,0x00,
 0x00,0x00,0x00,0x00,0x00,0x40,0xb5,0xaa,0x0a,0xaa,0x44,0x55,0x08,0x49,0x90,
 0x48,0xaa,0xd2,0xae,0xdb,0x04,0x00,0x00,0x00,0x00,0x00,0x00,0x00,0x00,0x00,
 0xa8,0xed,0xbf,0xaa,0x44,0x12,0x80,0x52,0x54,0x25,0xa5,0x44,0xf6,0x5e,0xab,
 0x00,0x00,0x00,0x00,0x00,0x00,0x00,0x00,0x00,0x00,0x40,0xb5,0xb6,0xa1,0xaa,
 0x44,0x55,0x94,0xa9,0x8a,0x14,0xa9,0x55,0xf7,0x6a,0x00,0x00,0x00,0x00,0x00,
 0x00,0x00,0x00,0x00,0x00,0xc0,0xda,0x7b,0x57,0x95,0x10,0x82,0x52,0xaa,0x24,
 0xa1,0x52,0xad,0xbf,0xaa,0x00,0x00,0x00,0x00,0x00,0x00,0x00,0x00,0x00,0x00,
 0x80,0xb5,0xd6,0xb5,0xa9,0xa6,0x28,0xa9,0x54,0x25,0x2a,0xad,0xf6,0xeb,0x75,
 0x01,0x00,0x00,0x00,0x00,0x00,0x00,0x00,0x00,0x00,0x40,0xad,0x5d,0xf5,0x5b,
 0x11,0x21,0xa2,0xaa,0x4a,0xa9,0xba,0xaf,0xbb,0xaa,0x00,0x00,0x00,0x00,0x00,
 0x00,0x00,0x00,0x00,0x00,0x80,0x5a,0xeb,0x5b,0x4b,0x65,0xd5,0xac,0xd4,0x92,
 0x52,0xab,0xea,0x7e,0x75,0x00,0x00,0x00,0x00,0x00,0x00,0x00,0x00,0x00,0x00,
 0x90,0xdb,0xba,0xfe,0xae,0x95,0x4a,0xa5,0x2a,0xa9,0xea,0xf6,0xd5,0xab,0xad,
 0x00,0x00,0x00,0x00,0x00,0x00,0x00,0x00,0x00,0x00,0x00,0x55,0xad,0x6d,0x6b,
 0x55,0xb9,0x54,0x95,0x92,0xaa,0x4d,0xaf,0x6e,0x6b,0x00,0x00,0x00,0x00,0x00,
 0x00,0x00,0x00,0x00,0x00,0x80,0x7e,0x6b,0xab,0xed,0xb7,0xaa,0x4a,0xaa,0xa4,
 0xda,0xff,0x9f,0x54,0x55,0x01,0x00,0x00,0x00,0x00,0x00,0x00,0x00,0x00,0x00,
 0x00,0xa9,0xd6,0xb6,0xb6,0x9d,0x55,0xb1,0xaa,0xaa,0xbe,0xfd,0x5b,0xb5,0xbd,
 0x00,0x00,0x00,0x80,0xcb };
